<svg width="126" height="23" viewBox="0 0 126 23" fill="none" xmlns="http://www.w3.org/2000/svg">
<path d="M8.2586 17.7544C7.24284 17.7544 6.41663 16.928 6.41663 15.9124C6.41663 14.8967 7.24284 14.0703 8.2586 14.0703C9.27416 14.0703 10.1006 14.8967 10.1006 15.9124C10.1006 16.928 9.27416 17.7544 8.2586 17.7544ZM8.2586 15.239C7.88738 15.239 7.58519 15.5412 7.58519 15.9124C7.58519 16.2836 7.88718 16.5856 8.2586 16.5856C8.62982 16.5856 8.9318 16.2836 8.9318 15.9124C8.9318 15.5412 8.62982 15.239 8.2586 15.239Z" fill="#A6CC41"/>
<path d="M16.2464 17.7544C15.2306 17.7544 14.4044 16.928 14.4044 15.9124C14.4044 14.8967 15.2308 14.0703 16.2464 14.0703C17.2619 14.0703 18.0884 14.8967 18.0884 15.9124C18.0882 16.928 17.2619 17.7544 16.2464 17.7544ZM16.2464 15.239C15.8752 15.239 15.573 15.5412 15.573 15.9124C15.573 16.2836 15.875 16.5856 16.2464 16.5856C16.6176 16.5856 16.9196 16.2836 16.9196 15.9124C16.9196 15.5412 16.6174 15.239 16.2464 15.239Z" fill="#A6CC41"/>
<path d="M21.5027 4.73647C20.7673 4.70538 20.0319 4.67551 19.2959 4.65673C18.5503 4.63513 17.8034 4.63009 17.0569 4.62161L15.936 4.62464L14.814 4.64382C14.0655 4.66521 13.3168 4.68883 12.5657 4.74858C13.3027 4.90562 14.0419 5.02654 14.7813 5.14503L15.8914 5.31015L17.0024 5.45913C17.7438 5.54775 18.4848 5.63999 19.2271 5.71549C19.7198 5.76757 20.2132 5.81379 20.7065 5.8586C20.5777 6.23225 20.4302 6.59883 20.2624 6.95531C18.6889 6.96944 17.1154 7.01002 15.5421 7.08511C13.5478 7.18503 11.5534 7.32512 9.559 7.59561C11.5534 7.8661 13.5478 8.00619 15.5421 8.10611C16.8801 8.1699 18.2182 8.20886 19.5561 8.22804C19.5006 8.31443 19.4455 8.40103 19.3874 8.48581C19 9.0373 18.5601 9.5478 18.0807 10.0151C17.1722 10.0371 16.2638 10.0712 15.3552 10.1225C13.6691 10.2224 11.9829 10.3623 10.2968 10.633C11.9829 10.9035 13.6691 11.0436 15.3552 11.1435C15.7793 11.1673 16.2034 11.1851 16.6275 11.2024C15.7077 11.8111 14.6978 12.2717 13.6424 12.5499L13.2084 12.6433C13.0639 12.675 12.9186 12.7101 12.7813 12.7227C12.5023 12.7675 12.2268 12.784 11.9553 12.7868C11.4131 12.7854 10.8953 12.6827 10.4492 12.4717C10.0023 12.2618 9.62743 11.9463 9.34059 11.545C9.05375 11.1439 8.85411 10.6588 8.73764 10.133L8.69222 9.93638L8.66517 9.73169C8.6472 9.59342 8.6256 9.46867 8.61208 9.29951L8.52044 8.34512L8.33472 6.43714C8.30666 6.11719 8.25943 5.80673 8.24954 5.4775C8.2239 5.11758 8.17465 4.74858 8.09754 4.38443C7.9415 3.65611 7.67969 2.92215 7.21703 2.24107C6.9867 1.90175 6.69501 1.57938 6.33934 1.30545C5.53391 0.684934 4.70225 0.567861 3.87604 0.711989C2.64187 0.927171 1.98078 2.28992 2.56859 3.39632L3.4697 2.91791C3.89906 2.69001 4.29873 2.6232 4.62272 2.70152C4.94792 2.77358 5.27594 3.01218 5.54603 3.39874C5.8147 3.78288 6.01192 4.28046 6.1284 4.80934C6.18734 5.07539 6.2269 5.34629 6.24991 5.62929C6.26202 5.945 6.3135 6.27323 6.34479 6.59499L6.56925 8.53325L6.6827 9.50198C6.69764 9.65418 6.72994 9.84736 6.7582 10.028L6.8024 10.3015L6.86962 10.5751C7.04625 11.3016 7.35469 12.0305 7.84037 12.6633C8.32039 13.2973 8.98027 13.8167 9.71222 14.129C10.4444 14.4461 11.2282 14.563 11.9731 14.5432C12.3453 14.5291 12.7139 14.4956 13.0695 14.4239C13.2528 14.3971 13.4196 14.3511 13.5885 14.3075L14.0952 14.1766C15.4311 13.7709 16.6816 13.1197 17.7802 12.283C18.8704 11.4338 19.7992 10.3946 20.5323 9.23976C21.2523 8.07583 21.7752 6.79726 22.0715 5.47083L22.0774 5.445C22.0879 5.39635 22.0923 5.34548 22.0901 5.293C22.077 4.98617 21.8099 4.74959 21.5027 4.73647Z" fill="white"/>
<path d="M1.67054 19.1478C1.67054 19.1478 12.6957 16.2461 25.0778 18.8172C25.0778 18.8172 12.9501 17.4948 0.737549 22.3433C0.737549 22.3433 0.99209 20.1763 1.67054 19.1478Z" fill="white"/>
<path d="M26.0393 12.5653C26.0393 11.9555 26.0519 11.3205 26.0772 10.6603C26.0982 9.96637 26.1318 9.35448 26.1781 8.8246H26.1655L25.4526 8.69213C25.4064 8.48607 25.3727 8.31154 25.3517 8.16856C25.3349 8.02137 25.3265 7.86997 25.3265 7.71437C25.3265 7.60503 25.3286 7.52092 25.3328 7.46205C25.4211 7.3485 25.5557 7.23495 25.7365 7.12141C25.9216 7.00366 26.136 6.90483 26.3799 6.82493C26.6239 6.74502 26.8762 6.70507 27.1369 6.70507C27.671 6.70507 28.0684 6.84175 28.3292 7.1151C28.5899 7.38845 28.7076 7.79638 28.6824 8.33888L28.6635 8.88768C28.6467 9.80867 28.6088 10.5572 28.5499 11.1334H30.6947C30.7073 10.2965 30.7452 9.5248 30.8082 8.81829H30.7956L29.8936 8.68582C29.8473 8.47976 29.8137 8.30523 29.7926 8.16225C29.7758 8.01506 29.7674 7.86366 29.7674 7.70806C29.7674 7.59872 29.7695 7.51462 29.7737 7.45574C29.862 7.3464 30.0134 7.23285 30.2279 7.1151C30.4424 6.99735 30.6884 6.89852 30.966 6.81862C31.2477 6.73872 31.5253 6.69876 31.7986 6.69876C32.3327 6.69876 32.7406 6.83754 33.0224 7.1151C33.3084 7.38845 33.4514 7.79428 33.4514 8.33257C33.4514 9.83811 33.218 11.9471 32.7511 14.6596L33.6848 14.2559C34.0044 14.5335 34.1873 14.9077 34.2336 15.3787C34.2336 15.4082 34.1347 15.5301 33.9371 15.7446C33.7436 15.9549 33.4892 16.1525 33.1738 16.3376C32.8626 16.5184 32.5072 16.6088 32.1077 16.6088C31.683 16.6088 31.3318 16.4953 31.0543 16.2682C30.7809 16.0411 30.6463 15.6437 30.6505 15.076V14.6659C30.6505 13.9678 30.6653 13.3875 30.6947 12.9249C30.598 12.9333 30.4508 12.9375 30.2531 12.9375C29.963 12.9375 29.5361 12.9123 28.9726 12.8618C28.7034 12.8366 28.5121 12.8197 28.3985 12.8113C28.4112 13.2361 28.4427 13.6587 28.4932 14.0793C28.5436 14.4956 28.6088 14.9666 28.6887 15.4923C28.7392 15.8245 28.7749 16.0747 28.796 16.243C28.6235 16.3481 28.3502 16.4343 27.9759 16.5016C27.6016 16.5689 27.2841 16.6025 27.0234 16.6025C26.893 16.6025 26.7689 16.592 26.6512 16.571C26.5376 16.55 26.4115 16.5184 26.2727 16.4764C26.1171 15.5049 26.0393 14.2012 26.0393 12.5653ZM34.7193 12.7546C34.7193 11.9934 34.8412 11.3331 35.0852 10.7738C35.3291 10.2145 35.7034 9.78133 36.208 9.47434C36.7127 9.16314 37.3456 9.00754 38.1067 9.00754C38.9478 9.00754 39.6081 9.16524 40.0875 9.48065C40.5669 9.79185 40.9012 10.225 41.0905 10.7801C41.2839 11.3352 41.3807 12.0144 41.3807 12.8176C41.3807 13.5452 41.2524 14.1949 40.9959 14.7669C40.7435 15.3346 40.3609 15.7846 39.8478 16.1168C39.3389 16.4448 38.7144 16.6088 37.9743 16.6088C36.8304 16.6088 36.0019 16.2577 35.4889 15.5554C34.9758 14.8489 34.7193 13.9153 34.7193 12.7546ZM38.2329 14.7605C38.4474 14.7605 38.5778 14.7437 38.624 14.7101C38.7207 14.5419 38.7943 14.3043 38.8448 13.9973C38.8953 13.6903 38.9205 13.358 38.9205 13.0006C38.9205 12.6726 38.8995 12.3656 38.8574 12.0796C38.8154 11.7894 38.7565 11.5623 38.6808 11.3983C38.6345 11.3436 38.542 11.3037 38.4032 11.2785C38.2645 11.249 38.1131 11.2343 37.949 11.2343C37.7346 11.2343 37.5874 11.2574 37.5075 11.3037C37.2972 11.6654 37.1921 12.1679 37.1921 12.8113C37.1921 13.1141 37.2152 13.4232 37.2615 13.7386C37.3077 14.054 37.3666 14.34 37.4381 14.5965C37.4886 14.6512 37.5916 14.6933 37.7472 14.7227C37.9028 14.7479 38.0647 14.7605 38.2329 14.7605ZM42.1692 11.0451C42.0977 10.7381 42.0514 10.5131 42.0304 10.3701C42.0094 10.2271 41.9989 10.0105 41.9989 9.72036C42.247 9.48485 42.514 9.30823 42.8 9.19047C43.086 9.06852 43.4077 9.00754 43.7651 9.00754C44.8501 9.00754 45.3926 9.55214 45.3926 10.6413C45.3926 10.9315 45.3653 11.2679 45.3106 11.6506C45.2602 12.0333 45.1866 12.5149 45.0898 13.0952C45.0772 13.1709 45.0436 13.3749 44.9889 13.7071C44.9342 14.0393 44.8964 14.3169 44.8754 14.5398C44.9469 14.6155 45.0352 14.668 45.1403 14.6975C45.1908 14.6975 45.3064 14.5944 45.4873 14.3884C45.6723 14.1781 45.8699 13.9237 46.0802 13.6251C46.2905 13.3265 46.4629 13.051 46.5975 12.7987C46.6311 12.1973 46.6774 11.6443 46.7363 11.1397L46.0739 11.0072C46.0192 10.7969 45.9814 10.6119 45.9604 10.4521C45.9393 10.2923 45.9288 10.122 45.9288 9.94114L45.9351 9.76451C46.0865 9.57106 46.3136 9.39654 46.6164 9.24094C46.9192 9.08534 47.2661 9.00754 47.6572 9.00754C48.7422 9.00754 49.2847 9.55214 49.2847 10.6413C49.2847 11.0829 49.2111 11.6654 49.064 12.3887C48.9168 13.1078 48.7443 13.8354 48.5467 14.5713L49.2721 14.2559C49.3941 14.3863 49.5013 14.5461 49.5938 14.7353C49.6906 14.9204 49.7515 15.1348 49.7768 15.3787C49.7179 15.5049 49.5896 15.6668 49.392 15.8645C49.1943 16.0579 48.9525 16.2303 48.6665 16.3817C48.3806 16.5331 48.082 16.6088 47.7708 16.6088C47.4217 16.6088 47.1526 16.5058 46.9634 16.2997C46.7783 16.0895 46.6858 15.8224 46.6858 15.4986C46.6858 15.4145 46.7068 15.2421 46.7489 14.9813C46.7951 14.7206 46.833 14.5398 46.8624 14.4388L46.6858 14.3821C46.4755 15.118 46.1854 15.6731 45.8153 16.0474C45.4494 16.4217 45.031 16.6088 44.56 16.6088C43.8829 16.6088 43.4056 16.3859 43.128 15.9402C42.8505 15.4902 42.7117 14.933 42.7117 14.2685C42.7117 13.0195 42.7537 11.9766 42.8378 11.1397L42.1692 11.0451ZM50.9059 14.2559C51.276 14.4031 51.5725 14.5166 51.7954 14.5965C52.0183 14.6764 52.2622 14.7458 52.5271 14.8047C52.7963 14.8636 53.0633 14.893 53.3283 14.893C53.446 14.893 53.5301 14.8825 53.5806 14.8615C53.5932 14.8447 53.6037 14.8194 53.6121 14.7858C53.6247 14.7479 53.631 14.7101 53.631 14.6722C53.631 14.5881 53.5827 14.5187 53.486 14.4641C53.3346 14.38 53.0654 14.2475 52.6785 14.0667C52.1486 13.8143 51.7281 13.5893 51.4169 13.3917C51.1099 13.194 50.8492 12.9312 50.6347 12.6032C50.4244 12.2751 50.3193 11.863 50.3193 11.3668C50.3193 10.6561 50.5317 10.0862 50.9564 9.65727C51.3811 9.22412 52.054 9.00754 52.975 9.00754C54.0726 9.00754 54.9263 9.15052 55.5361 9.43649C55.5655 9.55845 55.5803 9.71195 55.5803 9.89698C55.5803 10.2502 55.5256 10.6119 55.4162 10.982C55.3069 11.3479 55.1639 11.6191 54.9873 11.7957C54.7476 11.7158 54.409 11.5876 53.9717 11.4109C53.6521 11.2848 53.3976 11.188 53.2084 11.1208C53.0234 11.0493 52.853 10.9988 52.6974 10.9694C52.6133 10.9904 52.546 11.0409 52.4956 11.1208C52.4451 11.1965 52.4199 11.2869 52.4199 11.392C52.4199 11.4845 52.4472 11.5623 52.5019 11.6254C52.5566 11.6885 52.6175 11.739 52.6848 11.7768C52.7563 11.8104 52.8572 11.8567 52.9876 11.9156C53.0549 11.945 53.118 11.9724 53.1769 11.9976C53.2357 12.0186 53.2904 12.0396 53.3409 12.0607C53.6689 12.1994 53.9275 12.313 54.1168 12.4013C54.306 12.4896 54.4889 12.5948 54.6656 12.7167C54.9894 12.9396 55.2438 13.194 55.4289 13.48C55.6139 13.766 55.7064 14.0793 55.7064 14.4199C55.7064 14.8909 55.5718 15.2988 55.3027 15.6437C55.0378 15.9843 54.6971 16.2324 54.2808 16.388C54.0621 16.4679 53.8224 16.5247 53.5617 16.5584C53.3051 16.5962 53.0044 16.6151 52.6596 16.6151C52.2517 16.6151 51.8311 16.5373 51.398 16.3817C50.969 16.2219 50.641 15.957 50.4139 15.5869C50.4181 15.3304 50.4517 15.1075 50.5148 14.9183C50.5821 14.7248 50.7125 14.504 50.9059 14.2559ZM56.4066 12.8176C56.4066 12.0901 56.5286 11.4404 56.7725 10.8684C57.0164 10.2965 57.3928 9.84442 57.9016 9.51219C58.4147 9.17575 59.0539 9.00754 59.8193 9.00754C60.2188 9.00754 60.6183 9.0559 61.0179 9.15262C61.4174 9.24514 61.7559 9.40074 62.0335 9.61943C62.29 9.82549 62.475 10.0988 62.5886 10.4395C62.7063 10.7759 62.7652 11.1502 62.7652 11.5623C62.7652 11.8357 62.7421 12.1153 62.6958 12.4013C62.6454 12.4854 62.5465 12.5969 62.3993 12.7356C62.2521 12.8702 62.0797 13.0027 61.8821 13.1331C61.6844 13.2634 61.4931 13.3643 61.308 13.4358C61.1314 13.4485 60.9485 13.4548 60.7592 13.4548C60.427 13.4548 60.0906 13.44 59.7499 13.4106C59.4093 13.3812 59.1107 13.3475 58.8542 13.3097C58.8878 13.6671 58.9972 13.9783 59.1822 14.2433C59.3672 14.5082 59.6616 14.6407 60.0653 14.6407C60.1032 14.6407 60.1642 14.6365 60.2483 14.6281C60.5048 14.6028 60.8034 14.5356 61.144 14.4262C61.4889 14.3127 61.8316 14.1823 62.1722 14.0351C62.3321 14.1949 62.4498 14.3547 62.5255 14.5145C62.6012 14.6743 62.6538 14.9035 62.6832 15.2021C62.5528 15.3535 62.3405 15.5385 62.0461 15.7572C61.7559 15.9759 61.4006 16.1736 60.98 16.3502C60.5595 16.5226 60.12 16.6088 59.6616 16.6088C58.9719 16.6088 58.3811 16.4427 57.889 16.1105C57.4012 15.7741 57.0311 15.3199 56.7788 14.7479C56.5307 14.1718 56.4066 13.5284 56.4066 12.8176ZM60.4691 11.3668C60.4102 11.3037 60.3113 11.2553 60.1726 11.2217C60.0338 11.1838 59.8887 11.1649 59.7373 11.1649C59.6154 11.1649 59.4913 11.1754 59.3651 11.1965C59.2432 11.2175 59.1696 11.2406 59.1443 11.2658C59.0014 11.5476 58.9109 11.8672 58.8731 12.2247L60.5574 12.0607L60.4691 11.3668ZM66.3798 15.1012C66.3798 14.8867 66.4197 14.6701 66.4996 14.4514C66.5795 14.2328 66.7036 14.0267 66.8718 13.8333C67.4858 14.1024 68.0199 14.3085 68.4741 14.4514C68.9325 14.5944 69.4035 14.6659 69.8871 14.6659C69.9754 14.6659 70.0658 14.6575 70.1583 14.6407C70.2551 14.6239 70.3308 14.6007 70.3854 14.5713C70.4064 14.525 70.4233 14.4662 70.4359 14.3947C70.4485 14.319 70.4548 14.258 70.4548 14.2117C70.4548 14.0057 70.356 13.829 70.1583 13.6819C69.9607 13.5347 69.6999 13.3875 69.3761 13.2403L69.1553 13.1331C68.5245 12.8092 68.0178 12.5191 67.6351 12.2625C67.2566 12.0018 66.9349 11.6612 66.6699 11.2406C66.4092 10.8159 66.2788 10.2965 66.2788 9.68251C66.2788 8.78255 66.5291 8.06132 67.0295 7.51882C67.5342 6.97632 68.3353 6.70507 69.4329 6.70507C70.3707 6.70507 71.113 6.76185 71.6597 6.87539C71.8868 7.00997 72.0844 7.15085 72.2526 7.29804C72.425 7.44102 72.5891 7.61555 72.7447 7.82161C72.7447 8.11599 72.7152 8.4356 72.6563 8.78045C72.6017 9.12108 72.5239 9.43439 72.4229 9.72036C72.3262 10.0063 72.2211 10.2124 72.1075 10.3386C72.0108 10.3848 71.9036 10.4206 71.7858 10.4458C71.6681 10.4668 71.523 10.4773 71.3506 10.4773C71.1697 10.4773 71.0225 10.4647 70.909 10.4395C70.7955 10.4142 70.6903 10.3722 70.5936 10.3133L70.398 9.00123C70.1541 8.93394 69.8955 8.88558 69.6221 8.85614C69.3488 8.8225 69.1637 8.80778 69.067 8.81199C68.9114 8.88348 68.8042 8.98441 68.7453 9.11478C68.6906 9.24094 68.6633 9.39233 68.6633 9.56896C68.6633 9.7582 68.7138 9.92222 68.8147 10.061C68.9198 10.1956 69.046 10.307 69.1932 10.3953C69.3404 10.4836 69.5296 10.5825 69.7609 10.6918L70.0385 10.8306C70.6399 11.146 71.113 11.4214 71.4578 11.657C71.8026 11.8925 72.0907 12.191 72.322 12.5527C72.5575 12.9102 72.6753 13.3433 72.6753 13.8522C72.6753 14.4451 72.5197 14.9561 72.2085 15.3851C71.8973 15.8098 71.4978 16.1168 71.0099 16.306C70.745 16.4112 70.4527 16.4869 70.1331 16.5331C69.8135 16.5794 69.4434 16.6025 69.0229 16.6025C68.7369 16.6025 68.4299 16.5668 68.1019 16.4953C67.7739 16.4238 67.4542 16.2976 67.143 16.1168C66.8361 15.936 66.59 15.6942 66.405 15.3914C66.3882 15.3115 66.3798 15.2147 66.3798 15.1012ZM73.4512 12.7546C73.4512 11.9934 73.5731 11.3331 73.817 10.7738C74.061 10.2145 74.4352 9.78133 74.9399 9.47434C75.4445 9.16314 76.0775 9.00754 76.8386 9.00754C77.6797 9.00754 78.34 9.16524 78.8194 9.48065C79.2988 9.79185 79.6331 10.225 79.8224 10.7801C80.0158 11.3352 80.1126 12.0144 80.1126 12.8176C80.1126 13.5452 79.9843 14.1949 79.7278 14.7669C79.4754 15.3346 79.0927 15.7846 78.5797 16.1168C78.0708 16.4448 77.4463 16.6088 76.7062 16.6088C75.5623 16.6088 74.7338 16.2577 74.2208 15.5554C73.7077 14.8489 73.4512 13.9153 73.4512 12.7546ZM76.9648 14.7605C77.1793 14.7605 77.3096 14.7437 77.3559 14.7101C77.4526 14.5419 77.5262 14.3043 77.5767 13.9973C77.6271 13.6903 77.6524 13.358 77.6524 13.0006C77.6524 12.6726 77.6314 12.3656 77.5893 12.0796C77.5472 11.7894 77.4884 11.5623 77.4127 11.3983C77.3664 11.3436 77.2739 11.3037 77.1351 11.2785C76.9963 11.249 76.8449 11.2343 76.6809 11.2343C76.4665 11.2343 76.3193 11.2574 76.2394 11.3037C76.0291 11.6654 75.924 12.1679 75.924 12.8113C75.924 13.1141 75.9471 13.4232 75.9933 13.7386C76.0396 14.054 76.0985 14.34 76.17 14.5965C76.2204 14.6512 76.3235 14.6933 76.4791 14.7227C76.6347 14.7479 76.7966 14.7605 76.9648 14.7605ZM80.7938 8.23164C80.7307 7.97511 80.6887 7.76273 80.6677 7.59452C80.6466 7.4221 80.6382 7.22444 80.6424 7.00155C80.7307 6.88801 80.8674 6.77446 81.0525 6.66092C81.2417 6.54316 81.4604 6.44434 81.7085 6.36443C81.9608 6.28453 82.2216 6.24458 82.4907 6.24458C83.0164 6.24458 83.4201 6.37705 83.7019 6.64199C83.9836 6.90693 84.1245 7.29804 84.1245 7.8153C84.1245 8.18538 84.093 8.78045 84.0299 9.6005C83.9668 10.4206 83.8764 11.2932 83.7586 12.2184C83.6409 13.1394 83.5063 13.9447 83.3549 14.6344L83.3675 14.647L84.3011 14.2559C84.6292 14.5377 84.8205 14.9119 84.8752 15.3787C84.8752 15.4082 84.7806 15.5301 84.5913 15.7446C84.4021 15.9549 84.1519 16.1525 83.8407 16.3376C83.5337 16.5184 83.1804 16.6088 82.7809 16.6088C82.3646 16.6088 82.026 16.4932 81.7653 16.2619C81.5087 16.0306 81.3868 15.6353 81.3994 15.076L81.412 13.9405C81.4162 12.8639 81.4267 11.8946 81.4436 11.0324C81.4646 10.1703 81.5066 9.28089 81.5697 8.36411L80.7938 8.23164ZM85.3294 11.0451C85.2579 10.7381 85.2116 10.5131 85.1906 10.3701C85.1696 10.2271 85.1591 10.0105 85.1591 9.72036C85.4072 9.48485 85.6742 9.30823 85.9602 9.19047C86.2462 9.06852 86.5679 9.00754 86.9253 9.00754C88.0103 9.00754 88.5528 9.55214 88.5528 10.6413C88.5528 10.9315 88.5255 11.2679 88.4708 11.6506C88.4204 12.0333 88.3468 12.5149 88.25 13.0952C88.2374 13.1709 88.2038 13.3749 88.1491 13.7071C88.0944 14.0393 88.0566 14.3169 88.0356 14.5398C88.107 14.6155 88.1954 14.668 88.3005 14.6975C88.351 14.6975 88.4666 14.5944 88.6474 14.3884C88.8325 14.1781 89.0301 13.9237 89.2404 13.6251C89.4507 13.3265 89.6231 13.051 89.7577 12.7987C89.7913 12.1973 89.8376 11.6443 89.8965 11.1397L89.2341 11.0072C89.1794 10.7969 89.1416 10.6119 89.1206 10.4521C89.0995 10.2923 89.089 10.122 89.089 9.94114L89.0953 9.76451C89.2467 9.57106 89.4738 9.39654 89.7766 9.24094C90.0794 9.08534 90.4263 9.00754 90.8174 9.00754C91.9024 9.00754 92.4449 9.55214 92.4449 10.6413C92.4449 11.0829 92.3713 11.6654 92.2242 12.3887C92.077 13.1078 91.9045 13.8354 91.7069 14.5713L92.4323 14.2559C92.5543 14.3863 92.6615 14.5461 92.754 14.7353C92.8508 14.9204 92.9117 15.1348 92.937 15.3787C92.8781 15.5049 92.7498 15.6668 92.5522 15.8645C92.3545 16.0579 92.1127 16.2303 91.8267 16.3817C91.5408 16.5331 91.2422 16.6088 90.931 16.6088C90.5819 16.6088 90.3128 16.5058 90.1235 16.2997C89.9385 16.0895 89.846 15.8224 89.846 15.4986C89.846 15.4145 89.867 15.2421 89.9091 14.9813C89.9553 14.7206 89.9932 14.5398 90.0226 14.4388L89.846 14.3821C89.6357 15.118 89.3455 15.6731 88.9755 16.0474C88.6096 16.4217 88.1912 16.6088 87.7202 16.6088C87.0431 16.6088 86.5658 16.3859 86.2882 15.9402C86.0106 15.4902 85.8719 14.933 85.8719 14.2685C85.8719 13.0195 85.9139 11.9766 85.998 11.1397L85.3294 11.0451ZM93.9778 13.0006C93.9778 12.3151 93.9883 11.6906 94.0094 11.1271L93.3218 11.0072C93.2671 10.7969 93.2292 10.6119 93.2082 10.4521C93.1872 10.2923 93.1767 10.122 93.1767 9.94114L93.1893 9.81498C93.2019 9.7561 93.2082 9.70774 93.2082 9.66989L94.1229 9.46803C94.1439 9.2073 94.1923 8.91292 94.268 8.58489C94.3437 8.25687 94.4236 8.01506 94.5077 7.85946C94.6423 7.75853 94.8042 7.68283 94.9934 7.63237C95.1827 7.5819 95.3866 7.55667 95.6053 7.55667C95.7903 7.55667 95.9691 7.57559 96.1415 7.61344C96.3181 7.64709 96.4716 7.69335 96.602 7.75222C96.6146 7.89521 96.6209 8.05922 96.6209 8.24425C96.6209 8.54704 96.6062 8.88979 96.5768 9.27248L97.687 9.07062C97.8426 9.33977 97.9204 9.63204 97.9204 9.94745C97.9204 10.1661 97.8931 10.3638 97.8384 10.5404C97.7879 10.717 97.7164 10.9168 97.6239 11.1397C97.3464 11.1859 96.9658 11.2154 96.4821 11.228C96.4233 11.9135 96.2929 12.9207 96.091 14.2496L96.0595 14.4641L96.0721 14.4767L97.5545 14.0162C97.8615 14.2727 98.0487 14.668 98.1159 15.2021C98.1159 15.2316 97.9793 15.3703 97.7059 15.6185C97.4368 15.8624 97.0982 16.0895 96.6903 16.2997C96.2824 16.5058 95.8387 16.6088 95.3593 16.6088C94.5224 16.6088 94.0766 16.0979 94.022 15.076C93.9925 14.5587 93.9778 13.8669 93.9778 13.0006ZM98.8351 7.43051C98.8351 7.06043 98.9549 6.75974 99.1946 6.52844C99.4385 6.29715 99.8254 6.1815 100.355 6.1815C100.885 6.1815 101.27 6.29715 101.51 6.52844C101.754 6.75974 101.876 7.06043 101.876 7.43051C101.876 7.64078 101.802 7.83423 101.655 8.01085C101.512 8.18748 101.323 8.32836 101.087 8.4335C100.852 8.53443 100.608 8.58489 100.355 8.58489C100.082 8.58489 99.8275 8.52602 99.592 8.40827C99.3607 8.28631 99.1757 8.13491 99.0369 7.95408C98.9024 7.77325 98.8351 7.59872 98.8351 7.43051ZM98.526 11.0388C98.4713 10.8327 98.4334 10.6455 98.4124 10.4773C98.3914 10.3049 98.3809 10.1262 98.3809 9.94114L98.3872 9.76451C98.4755 9.65097 98.6122 9.53742 98.7972 9.42387C98.9865 9.30612 99.2051 9.2073 99.4533 9.12739C99.7056 9.04749 99.9663 9.00754 100.235 9.00754C100.824 9.00754 101.243 9.14001 101.491 9.40495C101.739 9.66989 101.863 10.082 101.863 10.6413C101.863 10.9778 101.815 11.4172 101.718 11.9597C101.625 12.5022 101.512 13.03 101.377 13.5431C101.247 14.0519 101.133 14.4157 101.037 14.6344L101.049 14.647L101.983 14.3064C102.151 14.4493 102.277 14.6071 102.361 14.7795C102.45 14.9519 102.506 15.1517 102.532 15.3787C102.532 15.4082 102.439 15.5301 102.254 15.7446C102.069 15.9549 101.823 16.1525 101.516 16.3376C101.213 16.5184 100.862 16.6088 100.463 16.6088C100.059 16.6088 99.7308 16.4995 99.4785 16.2808C99.2304 16.0621 99.1063 15.6878 99.1063 15.158C99.1063 14.5398 99.1231 13.8837 99.1568 13.1898C99.1904 12.4959 99.243 11.8231 99.3145 11.1712L98.526 11.0388ZM103.062 12.7546C103.062 11.9934 103.183 11.3331 103.427 10.7738C103.671 10.2145 104.046 9.78133 104.55 9.47434C105.055 9.16314 105.688 9.00754 106.449 9.00754C107.29 9.00754 107.95 9.16524 108.43 9.48065C108.909 9.79185 109.243 10.225 109.433 10.7801C109.626 11.3352 109.723 12.0144 109.723 12.8176C109.723 13.5452 109.595 14.1949 109.338 14.7669C109.086 15.3346 108.703 15.7846 108.19 16.1168C107.681 16.4448 107.057 16.6088 106.316 16.6088C105.173 16.6088 104.344 16.2577 103.831 15.5554C103.318 14.8489 103.062 13.9153 103.062 12.7546ZM106.575 14.7605C106.79 14.7605 106.92 14.7437 106.966 14.7101C107.063 14.5419 107.137 14.3043 107.187 13.9973C107.237 13.6903 107.263 13.358 107.263 13.0006C107.263 12.6726 107.242 12.3656 107.2 12.0796C107.158 11.7894 107.099 11.5623 107.023 11.3983C106.977 11.3436 106.884 11.3037 106.745 11.2785C106.607 11.249 106.455 11.2343 106.291 11.2343C106.077 11.2343 105.93 11.2574 105.85 11.3037C105.639 11.6654 105.534 12.1679 105.534 12.8113C105.534 13.1141 105.557 13.4232 105.604 13.7386C105.65 14.054 105.709 14.34 105.78 14.5965C105.831 14.6512 105.934 14.6933 106.089 14.7227C106.245 14.7479 106.407 14.7605 106.575 14.7605ZM111.174 14.2874C111.174 13.602 111.182 13.0847 111.199 12.7356C111.216 12.3824 111.26 11.8651 111.331 11.1838L110.6 11.0892C110.511 10.8159 110.453 10.572 110.423 10.3575C110.398 10.143 110.385 9.86544 110.385 9.5248C110.453 9.46593 110.564 9.39654 110.72 9.31664C110.879 9.23253 111.069 9.16104 111.287 9.10216C111.506 9.03908 111.727 9.00754 111.95 9.00754C112.459 9.00754 112.818 9.11688 113.028 9.33556C113.243 9.55424 113.35 9.88226 113.35 10.3196C113.35 10.5635 113.314 10.8937 113.243 11.31C113.125 11.9787 113.066 12.3298 113.066 12.3635C113.066 12.3845 113.081 12.4055 113.11 12.4265C113.14 12.4434 113.171 12.4518 113.205 12.4518C113.243 12.4518 113.268 12.4371 113.281 12.4076C113.449 11.739 113.617 11.1796 113.785 10.7297C113.954 10.2797 114.208 9.88016 114.549 9.53111C114.889 9.18206 115.331 9.00754 115.873 9.00754C116.546 9.00754 117.03 9.2136 117.324 9.62573C117.619 10.0337 117.766 10.5488 117.766 11.1712C117.766 11.7263 117.701 12.2625 117.57 12.7798C117.44 13.2929 117.278 13.829 117.084 14.3884C117.093 14.3673 117.063 14.4493 116.996 14.6344L117.009 14.647L117.93 14.2685C118.258 14.5503 118.449 14.9246 118.504 15.3914C118.504 15.4208 118.409 15.5407 118.22 15.7509C118.035 15.9612 117.789 16.1567 117.482 16.3376C117.175 16.5184 116.822 16.6088 116.422 16.6088C116.023 16.6088 115.697 16.5016 115.444 16.2871C115.192 16.0726 115.066 15.7068 115.066 15.1895C115.066 14.7774 115.083 14.2265 115.116 13.5368C115.15 12.8471 115.184 12.292 115.217 11.8714C115.108 11.7537 114.973 11.6906 114.814 11.6822C114.666 11.8714 114.45 12.2499 114.164 12.8176C113.878 13.3854 113.676 13.8101 113.558 14.0919C113.55 14.1508 113.546 14.2075 113.546 14.2622C113.546 14.4725 113.577 14.7563 113.64 15.1138C113.703 15.4671 113.781 15.7972 113.874 16.1042C113.798 16.2472 113.642 16.367 113.407 16.4637C113.171 16.5605 112.881 16.6088 112.536 16.6088C112.225 16.6088 111.975 16.5836 111.786 16.5331C111.601 16.4827 111.47 16.4301 111.395 16.3754C111.319 16.3166 111.281 16.2808 111.281 16.2682C111.277 16.2303 111.266 16.1315 111.249 15.9717C111.233 15.8077 111.216 15.5806 111.199 15.2904C111.182 14.9961 111.174 14.6617 111.174 14.2874ZM119.589 14.2559C119.959 14.4031 120.255 14.5166 120.478 14.5965C120.701 14.6764 120.945 14.7458 121.21 14.8047C121.479 14.8636 121.746 14.893 122.011 14.893C122.129 14.893 122.213 14.8825 122.263 14.8615C122.276 14.8447 122.287 14.8194 122.295 14.7858C122.308 14.7479 122.314 14.7101 122.314 14.6722C122.314 14.5881 122.266 14.5187 122.169 14.4641C122.017 14.38 121.748 14.2475 121.361 14.0667C120.831 13.8143 120.411 13.5893 120.1 13.3917C119.793 13.194 119.532 12.9312 119.318 12.6032C119.107 12.2751 119.002 11.863 119.002 11.3668C119.002 10.6561 119.215 10.0862 119.639 9.65727C120.064 9.22412 120.737 9.00754 121.658 9.00754C122.755 9.00754 123.609 9.15052 124.219 9.43649C124.248 9.55845 124.263 9.71195 124.263 9.89698C124.263 10.2502 124.208 10.6119 124.099 10.982C123.99 11.3479 123.847 11.6191 123.67 11.7957C123.43 11.7158 123.092 11.5876 122.655 11.4109C122.335 11.2848 122.081 11.188 121.891 11.1208C121.706 11.0493 121.536 10.9988 121.38 10.9694C121.296 10.9904 121.229 11.0409 121.178 11.1208C121.128 11.1965 121.103 11.2869 121.103 11.392C121.103 11.4845 121.13 11.5623 121.185 11.6254C121.239 11.6885 121.3 11.739 121.368 11.7768C121.439 11.8104 121.54 11.8567 121.67 11.9156C121.738 11.945 121.801 11.9724 121.86 11.9976C121.919 12.0186 121.973 12.0396 122.024 12.0607C122.352 12.1994 122.61 12.313 122.8 12.4013C122.989 12.4896 123.172 12.5948 123.348 12.7167C123.672 12.9396 123.927 13.194 124.112 13.48C124.297 13.766 124.389 14.0793 124.389 14.4199C124.389 14.8909 124.255 15.2988 123.986 15.6437C123.721 15.9843 123.38 16.2324 122.964 16.388C122.745 16.4679 122.505 16.5247 122.245 16.5584C121.988 16.5962 121.687 16.6151 121.342 16.6151C120.935 16.6151 120.514 16.5373 120.081 16.3817C119.652 16.2219 119.324 15.957 119.097 15.5869C119.101 15.3304 119.135 15.1075 119.198 14.9183C119.265 14.7248 119.395 14.504 119.589 14.2559Z" fill="white"/>
</svg>
